<?xml version="1.0" encoding="UTF-8"?>
<svg id="Layer_2" data-name="Layer 2" xmlns="http://www.w3.org/2000/svg" viewBox="0 0 186.26 209.43">
  <defs>
    <style>
      .cls-1 {
        fill: none;
        stroke: #fff;
        stroke-miterlimit: 10;
        stroke-width: 22px;
      }
    </style>
  </defs>
  <g id="Layer_1-2" data-name="Layer 1">
    <g>
      <path class="cls-1" d="M10.13,198.32c21.62,0,43.31-.5,64.92.07,19.71.52,39.13-4.25,55.87-14.85,31.17-19.73,48.22-55.89,43.6-92.41-2.3-18.19-9.52-36.01-21.56-49.95-12.01-13.9-28.6-23.78-46.51-27.83-11.22-2.54-22.77-2.35-34.2-2.35-20.41,0-40.82,0-61.23,0h-.87"/>
      <path class="cls-1" d="M20.81,32.91v129.97c21.71,0,43.59.82,65.27.07,15.54-.54,29.99-9.56,39.45-21.55,8.58-10.88,13.79-24.47,14.21-38.32.42-13.85-4.02-27.87-12.69-38.68-10.6-13.21-26.5-20.59-43.23-20.49-10.32.06-20.63,0-30.95,0v92.81"/>
    </g>
  </g>
</svg>