<?xml version="1.0" encoding="utf-8"?>
<!-- Generator: Adobe Illustrator 19.2.1, SVG Export Plug-In . SVG Version: 6.00 Build 0)  -->
<svg version="1.1" id="layer" xmlns="http://www.w3.org/2000/svg" xmlns:xlink="http://www.w3.org/1999/xlink" x="0px" y="0px"
	 viewBox="0 0 652 652" style="enable-background:new 0 0 652 652;" xml:space="preserve">
<style type="text/css">
	.st0{fill:#004559;}
	.st1{fill:#BCD400;}
</style>
<g>
	<path class="st0" d="M249.5,285.1h-24.8c-4.7,0-9,0.9-9,7.7v70.7c0,6.8,4.4,7.7,9,7.7h24.8c24,0,42.8-19.7,42.8-43.1
		C292.3,304.8,273.5,285.1,249.5,285.1 M248.9,354.8H234v-53.1h14.9c14.6,0,25.4,12.6,25.4,26.5
		C274.3,341.8,263.5,354.8,248.9,354.8 M178.2,285.1H176c-4.4,0.2-7.3,1-13.4,6.5l-67.2,67.2c-3.5,3.5-3.2,6-2.6,7.8
		c0.1,0.3,1.4,4.2,7.9,4.7c3.4,0.2,6.6-0.8,10.3-4.5l11.2-11.1h46.6v7.9c0,6.8,4.4,7.7,9,7.7h0.3c4.7,0,9-0.9,9-7.7v-70.7
		C187.3,286,182.9,285.1,178.2,285.1 M137,340.8l31.8-31.8v31.8H137z M332.7,363.5c0,6.8-4.4,7.7-9,7.7h-0.3c-4.7,0-9-0.9-9-7.7
		v-70.7c0-6.8,4.4-7.7,9-7.7h0.3c4.7,0,9,0.9,9,7.7V363.5z M378.4,354.5h44.8c6.1,0,7.5,3.6,7.7,7.7v1.2c-0.2,4.1-1.6,7.7-7.7,7.7
		h-54.1c-4.7,0-9-0.9-9-7.7v-70.7c0-6.8,4.4-7.7,9-7.7h54.1c6.1,0,7.5,3.6,7.7,7.7v1.2c-0.2,4.1-1.6,7.7-7.7,7.7h-44.8v17.1h34.3
		c6.1,0,7.5,3.6,7.7,7.7v1.2c-0.2,4.1-1.6,7.7-7.7,7.7h-34.3V354.5z M638.6,292.8v1.2c-0.2,4.1-1.6,7.7-7.7,7.7h-26v61.7
		c0,6.8-4.4,7.7-9,7.7h-0.3c-4.7,0-9-0.9-9-7.7v-61.7h-26c-6.1,0-7.5-3.6-7.7-7.7v-1.2c0.2-4.1,1.6-7.7,7.7-7.7h70.4
		C637,285.1,638.4,288.7,638.6,292.8 M471.4,315.3v48.2c0,6.8-4.4,7.7-9,7.7h-0.3c-4.7,0-9-0.9-9-7.7v-70.7c0-6.8,4.4-7.7,9-7.7h0.3
		c3.8,0,6.7,3.4,6.7,3.4l49.6,52.5v-48.2c0-6.8,4.4-7.7,9-7.7h0.3c4.7,0,9,0.9,9,7.7v70.7c0,6.8-4.4,7.7-9,7.7h-0.3
		c-3.8,0-6.7-3.4-6.7-3.4L471.4,315.3z M638.6,292.8v1.2c-0.2,4.1-1.6,7.7-7.7,7.7h-26v61.7c0,6.8-4.4,7.7-9,7.7h-0.3
		c-4.7,0-9-0.9-9-7.7v-61.7h-26c-6.1,0-7.5-3.6-7.7-7.7v-1.2c0.2-4.1,1.6-7.7,7.7-7.7h70.4C637,285.1,638.4,288.7,638.6,292.8
		 M471.4,315.3v48.2c0,6.8-4.4,7.7-9,7.7h-0.3c-4.7,0-9-0.9-9-7.7v-70.7c0-6.8,4.4-7.7,9-7.7h0.3c3.8,0,6.7,3.4,6.7,3.4l49.6,52.5
		v-48.2c0-6.8,4.4-7.7,9-7.7h0.3c4.7,0,9,0.9,9,7.7v70.7c0,6.8-4.4,7.7-9,7.7h-0.3c-3.8,0-6.7-3.4-6.7-3.4L471.4,315.3z"/>
	<path class="st1" d="M29.4,448.4c-4.3,4.3-7.8,2.8-10.9,0l-0.9-0.9c-2.8-3.1-4.4-6.6,0-10.9l57.7-57.7c4.3-4.3,7.8-2.8,10.9,0
		l0.9,0.9c2.8,3.1,4.4,6.6,0,10.9L29.4,448.4z M202.7,275.1c-4.3,4.3-7.8,2.8-10.9,0l-0.9-0.9c-2.8-3.1-4.4-6.6,0-10.9l57.7-57.7
		c4.3-4.3,7.8-2.8,10.9,0l0.9,0.9c2.8,3.1,4.4,6.6,0,10.9L202.7,275.1z"/>
</g>
</svg>
