<?xml version="1.0" encoding="utf-8"?>
<!-- Generator: Adobe Illustrator 19.2.1, SVG Export Plug-In . SVG Version: 6.00 Build 0)  -->
<svg version="1.1" id="layer" xmlns="http://www.w3.org/2000/svg" xmlns:xlink="http://www.w3.org/1999/xlink" x="0px" y="0px"
	 viewBox="0 0 652 652" style="enable-background:new 0 0 652 652;" xml:space="preserve">
<style type="text/css">
	.st0{fill:#3053A4;}
	.st1{fill:#89BC40;}
</style>
<g>
	<g>
		<path class="st0" d="M185.9,301.3c-0.1-0.3-0.4,0.5-0.7,0.9c-8.2,15.4-24.2,39.2-56.8,61.2c-18.5,12.5-38.6,22.4-59.7,29.5
			c0,0,2.5,1.2,2.7,1.3c41.3,19,90.3,0.9,109.2-40.5c5-10.8,7.5-22.5,7.5-34.4C188.3,313.3,187.5,307.2,185.9,301.3"/>
	</g>
</g>
<g>
	<g>
		<path class="st1" d="M27.8,351.7L27.8,351.7c-1.1,1.7-6.7,9.5-1.9,17.2c8.1,12.5,37.4,16.4,90.3-13.4c54.5-30.6,79.4-75.8,69.8-88
			c-4.7-5.9-15.8-2.4-15.8-2.4l-0.8-0.8c0,0,14.1-4.8,19.1,3.8c9.7,16.6-16.1,63.3-68.7,94.9c-55.7,33.6-87.1,30.3-96.1,12.5
			c-3.8-8.1-2.4-17.7,3.5-24.4l0.1-0.1L27.8,351.7z"/>
	</g>
</g>
<g>
	<g>
		<path class="st0" d="M170.4,269.1c-1.8-2.9-3.9-5.6-6.3-8.1c-32.3-32.1-84.5-31.9-116.6,0.5c-22.8,22.9-30,57.1-18.6,87.3
			c0.5,1.6,1.1,3.2,1.9,4.7c4.4,10.1,27.1,10.1,51.9,0.1c-9.4,1.2-9.9,0.5-9.9,0.5l-33.3-44.7c0,0,3.8-1.7,9.9-4.3l12.9-5.4
			l35.3,47.8c0,0,26-12.5,46.8-30.6C164.3,299.5,176.9,279.9,170.4,269.1 M152.5,275c0,0-20.7,9.8-41.7,19.5l8.9-1.6l-1.9,10.5
			l13.4-4.6l-3.8,9.8l-11.9,7.5l-2.4,12.7l-15.6,8.1l6.3-39.5c-8.2,3.9-14.2,7.1-24,11.9c-7.6-10.7-9.5-13.2-9.5-13.2
			c41.3-16.5,88.2-27.9,88.2-27.9L152.5,275z"/>
	</g>
</g>
<g>
	<g>
		<path class="st0" d="M258.8,277.1l-16.1,19.5l-6.3-19.5h-26.8l15.8,37.6l-6.2,24.3h25.9l6.2-24.3l34.5-37.6H258.8z M304.8,290
			c-18.4-0.1-23.4,0.3-23.4,0.3l-11,11.9c9.1,0,19.7-0.1,24.3,0.1c5.2,0.3,5.5,1.9,5.2,3.9l-0.8,4.2c-9,0.3-11.9,0.1-15.2,0.3
			c-7.2,0.5-12.6,1.6-16,3c-5,1.9-8.8,6.2-10.1,11.4c-0.2,1.1-0.4,2.1-0.4,3.2c0,7.2,7.8,10.9,23.4,10.9c3.9,0.1,7.7-0.7,11.3-2.1
			l-0.4,1.7h21.6c0,0,5.8-22.9,7-27.5C321.3,307.2,325,290.1,304.8,290 M295.3,324.5c-0.8,3.1-3.4,4.6-7.9,4.6
			c-3.9,0-5.8-1.1-5.8-3.2c0-0.5,0-0.9,0.1-1.3c0.5-1.8,1.9-3.3,3.6-3.9c1.9-0.7,3.8-1.1,5.8-1.2c1.9-0.1,3.8-0.5,5.6-1.2
			L295.3,324.5z M366.6,289.9c-4.7-0.2-9.4,0.5-13.8,2l0.4-1.6h-21.6l-12.3,48.4h21.6l7.9-31.3c1.2-5,3.8-7.4,7.5-7.4
			c2.8,0,4.3,1.3,4.3,4.2c0,1.1-0.2,2.2-0.5,3.2l-7.9,31.4h21.6l7.4-29.3c0.6-2.4,1-4.8,1.1-7.2C382.3,294,377,289.9,366.6,289.9
			 M437.4,290.5l-15.3-0.1c1.6-3.6,5.2-5.8,9.1-5.6h4.8l5.5-11.4h-9.7c-20.3,0.1-26,5.8-31.4,17h-11.3l-3.4,13.3h10.6l-9,35.3h21.6
			l9-35.3h8.5c0,0,3.6-5.6,6.6-9.5C434.4,292.8,435.9,291.6,437.4,290.5 M463.3,324.2c-0.9,3-3.7,5-6.8,4.8c-2.8,0-4.3-1.3-4.3-4.2
			c0-1.1,0.2-2.2,0.5-3.2l0.9-3.8h37.2l1.3-5.2c0.6-2.2,0.9-4.5,0.9-6.8c-0.1-10.6-9-16-26.7-16c-21.1,0-33.4,7.5-37.3,22.7l-0.9,4
			c-0.6,2.1-0.9,4.4-0.9,6.6c0.1,10.7,9,16.1,26.7,16.1c17,0,28.5-5,34.2-15c0.2-0.2,0.3-0.4,0.4-0.7h-25
			C463.5,323.7,463.5,324.1,463.3,324.2 M456.3,307.6c1.2-5,3.8-7.4,7.5-7.4c2.1-0.3,4,1.2,4.3,3.3c0,0.3,0,0.7,0,1
			c0,1.1-0.2,2.2-0.4,3.2l-0.4,1.7h-11.4L456.3,307.6z M553.6,302.3c-0.1-8.3-5.4-12.3-15.8-12.3c-4.7-0.2-9.4,0.5-13.8,2l0.4-1.6
			h-21.6L490.4,339H512l7.9-31.4c1.2-5,3.8-7.4,7.5-7.4c2.8,0,4.3,1.3,4.3,4.2c0,1.1-0.2,2.2-0.5,3.2l-7.9,31.4h21.6l7.4-29.4
			C553.2,307.3,553.6,304.8,553.6,302.3 M599.9,290.3l-0.4,1.7c-3-1.5-6.4-2.3-9.8-2.1c-18,0-28.9,7.6-32.6,22.8l-1.1,4
			c-0.7,2.4-1,5-0.9,7.5c0.1,10.1,7.5,15.2,22.1,15.2c3.7,0,7.4-0.7,10.9-2l-0.7,2.7c-1.2,4.8-3.6,7.2-7.4,7.2
			c-2.4,0-3.9-0.7-4.4-2.1c0-0.1-0.1-0.3-0.1-0.4l-25.2-0.1v0.4c0.7,8.5,9.7,12.6,27,12.6c18.3,0,29.3-7.5,33-22.7l11.3-44.6h-21.6
			L599.9,290.3z M595.5,307.6l-3.5,14.1c-1.2,5-3.8,7.4-7.5,7.4c-2.8,0-4.3-1.3-4.3-4.2c0-1.1,0.2-2.2,0.4-3.2l3.5-14.1
			c1.2-5,3.8-7.4,7.5-7.4c2.8,0,4.3,1.3,4.3,4.2C596,305.4,595.8,306.5,595.5,307.6"/>
	</g>
</g>
<g>
	<g>
		<path class="st1" d="M227.7,345.6c2.3-0.1,4.6,0.7,6.4,2.1l-2,2.5c-1.3-1-2.8-1.5-4.4-1.5c-3,0-5.4,2.4-5.4,5.4c0,0.1,0,0.3,0,0.4
			c0,3.6,2,5.9,5.4,5.9c1.1,0,2.2-0.2,3.1-0.8v-3.5h-4v-2.5h7.4v8.1c-1.9,1.4-4.3,2.1-6.7,2c-4.8,0.3-8.9-3.4-9.1-8.2
			c0-0.3,0-0.6,0-0.9c0-5,4-9,9-9C227.4,345.5,227.5,345.5,227.7,345.6"/>
	</g>
</g>
<g>
	<g>
		<rect x="237.2" y="344.5" class="st1" width="3.6" height="18.9"/>
	</g>
</g>
<g>
	<g>
		<path class="st1" d="M249.1,349.6c3.6-0.2,6.6,2.6,6.7,6.2c0,0.2,0,0.5,0,0.7c0,4.4-2.7,7.1-6.7,7.1c-4,0-6.8-2.7-6.8-7.1
			c-0.1-3.7,2.7-6.7,6.4-6.8C248.8,349.6,249,349.6,249.1,349.6 M249.1,360.9c1.9,0,3-1.7,3-4.4c0-2.4-1.2-4.2-3-4.2
			c-1.7,0-3.1,1.6-3.1,4.2C246,359.2,247.1,360.9,249.1,360.9"/>
	</g>
</g>
<g>
	<g>
		<path class="st1" d="M257.3,344.5h3.6v7c1-1.1,2.4-1.7,3.9-1.7c3.1,0,5.2,2.3,5.2,6.8s-2.1,7.2-5.1,7.2c-1.6,0-3.1-0.7-4.2-1.9
			l-0.3,1.6h-3.2V344.5z M263.8,360.9c1.7,0,2.7-1.7,2.7-4.3c0-2.5-0.8-4-2.7-4c-1.1,0.1-2.1,0.5-2.8,1.3v5.8
			C261.7,360.4,262.7,360.8,263.8,360.9"/>
	</g>
</g>
<g>
	<g>
		<path class="st1" d="M279.3,355.4v-1.2c0-0.9-0.5-1.6-1.9-1.6c-1.5,0.1-3,0.6-4.3,1.3l-1.3-2.7c1.8-0.9,3.8-1.4,5.8-1.5
			c3.9,0,5.4,1.9,5.4,4.7v5.6c0,0.5,0.4,1,0.9,1.1c0.1,0,0.1,0,0.2,0v2.5c-2.5,0-3.6-0.4-4.3-1.6c-1,1.2-2.6,1.9-4.2,1.9
			c-2,0.2-3.8-1.2-4-3.2c0-0.1,0-0.3,0-0.4C271.5,357.2,274.2,355.6,279.3,355.4 M276.8,361c1,0,1.9-0.4,2.5-1.1v-2.5
			c-2,0.1-4.2,0.7-4.2,2.4C275.2,360.5,275.8,361,276.8,361"/>
	</g>
</g>
<g>
	<g>
		<rect x="286" y="344.5" class="st1" width="3.6" height="18.9"/>
	</g>
</g>
<g>
	<g>
		<path class="st1" d="M303.5,345.8h4.3l6.3,17.6h-4l-1.1-3.2h-6.7l-1.1,3.2h-4L303.5,345.8z M303.4,357.1h4.7l-2.4-7.1l0,0
			L303.4,357.1z"/>
	</g>
</g>
<g>
	<g>
		<path class="st1" d="M315.4,349.8h3.6v9c0,1.2,0.4,2,1.7,2c1.2,0,2.3-0.6,3-1.5v-9.5h3.6v13.4H324l-0.3-1.6
			c-1.1,1.1-2.6,1.8-4.2,1.9c-3.1,0-4.3-1.9-4.3-4.8v-8.9L315.4,349.8z"/>
	</g>
</g>
<g>
	<g>
		<path class="st1" d="M331,352.5h-2.1V350h2.1v-3.4h3.6v3.4h3.6v2.5h-3.6v6.7c0,0.9,0.4,1.5,1.2,1.5c0.7,0,1.3-0.2,1.9-0.5l1.3,2.1
			c-1.1,0.9-2.5,1.3-3.9,1.3c-2.8,0-4.2-1.3-4.2-4.4V352.5z"/>
	</g>
</g>
<g>
	<g>
		<path class="st1" d="M346.2,349.6c3.6-0.2,6.6,2.6,6.7,6.2c0,0.2,0,0.5,0,0.7c0,4.4-2.7,7.1-6.7,7.1c-4,0-6.8-2.7-6.8-7.1
			c-0.1-3.7,2.7-6.7,6.4-6.8C345.9,349.6,346,349.6,346.2,349.6 M346.2,360.9c1.9,0,3-1.7,3-4.4c0-2.4-1.2-4.2-3-4.2
			c-1.7,0-3.1,1.6-3.1,4.2C343.1,359.2,344.1,360.9,346.2,360.9"/>
	</g>
</g>
<g>
	<g>
		<path class="st1" d="M354.3,349.8h3.5l0.1,1.5c1.1-1,2.5-1.6,4-1.7c1.5-0.1,2.9,0.7,3.6,2c1.2-1.2,2.8-1.9,4.4-2
			c2.8,0,4.2,1.9,4.2,4.8v9h-3.6v-9.1c0-1.2-0.5-2-1.6-2c-1.1,0.1-2.1,0.6-2.8,1.5v9.7h-3.6v-9.1c0-1.2-0.5-2-1.6-2
			c-1.1,0.1-2.1,0.6-2.8,1.5v9.5h-3.6v-13.4H354.3z"/>
	</g>
</g>
<g>
	<g>
		<path class="st1" d="M382.3,349.6c3.6-0.2,6.6,2.6,6.7,6.2c0,0.2,0,0.5,0,0.7c0,4.4-2.7,7.1-6.7,7.1c-4,0-6.8-2.7-6.8-7.1
			c-0.1-3.7,2.9-6.8,6.6-6.8C382.1,349.6,382.2,349.6,382.3,349.6 M382.3,360.9c1.9,0,3-1.7,3-4.4c0-2.4-1.2-4.2-3-4.2
			c-1.7,0-3.1,1.6-3.1,4.2C379.2,359.2,380.4,360.9,382.3,360.9"/>
	</g>
</g>
<g>
	<g>
		<path class="st1" d="M391.9,352.5h-2.1V350h2.1v-3.4h3.6v3.4h3.6v2.5h-3.6v6.7c0,0.9,0.4,1.5,1.2,1.5c0.7,0,1.3-0.2,1.9-0.5
			l1.3,2.1c-1.1,0.9-2.5,1.3-3.9,1.3c-2.8,0-4.2-1.3-4.2-4.4V352.5z"/>
	</g>
</g>
<g>
	<g>
		<path class="st1" d="M401.5,344.6h3.6v3.2h-3.6V344.6z M401.5,350.1h3.6v13.3h-3.6V350.1z"/>
	</g>
</g>
<g>
	<g>
		<polygon class="st1" points="406.4,349.8 410.2,349.8 413,359.4 413,359.4 415.9,349.8 419.3,349.8 414.9,363.4 411,363.4 		"/>
	</g>
</g>
<g>
	<g>
		<path class="st1" d="M426.4,349.6c3.9,0,6,2.5,6,6.2c0,0.5,0,1.1-0.1,1.6h-8.9c-0.1,1.7,1.1,3.2,2.8,3.4c0.2,0,0.4,0,0.5,0
			c1.3,0,2.7-0.4,3.8-1.2l1.5,2.3c-1.6,1.2-3.5,1.8-5.5,1.7c-4,0-6.7-2.7-6.7-7.1c-0.3-3.5,2.3-6.6,5.8-6.8
			C425.9,349.6,426.2,349.6,426.4,349.6 M423.5,355.2h5.5c0-1.7-0.7-3-2.4-3C424.8,352.3,423.9,353.3,423.5,355.2"/>
	</g>
</g>
<g>
	<g>
		<rect x="440.5" y="345.8" class="st1" width="3.8" height="17.6"/>
	</g>
</g>
<g>
	<g>
		<path class="st1" d="M447.4,349.8h3.5l0.1,1.6c1-1.2,2.5-1.9,4-1.9c3,0,4.3,1.9,4.3,4.8v8.9h-3.6v-9c0-1.2-0.5-2-1.7-2
			c-1.2,0-2.3,0.6-3,1.6v9.4h-3.6V349.8z"/>
	</g>
</g>
<g>
	<g>
		<path class="st1" d="M462.8,352.5h-2.1V350h2.1v-3.4h3.6v3.4h3.6v2.5h-3.6v6.7c0,0.9,0.4,1.5,1.2,1.5c0.7,0,1.3-0.2,1.9-0.5
			l1.3,2.1c-1.1,0.9-2.5,1.3-3.9,1.3c-2.8,0-4.2-1.3-4.2-4.4V352.5z"/>
	</g>
</g>
<g>
	<g>
		<path class="st1" d="M478,349.6c3.9,0,6,2.5,6,6.2c0,0.5,0,1.1-0.1,1.6H475c0.3,2.3,1.3,3.4,3.4,3.4c1.3,0,2.7-0.4,3.8-1.2
			l1.5,2.3c-1.6,1.2-3.5,1.8-5.5,1.7c-4,0-6.7-2.7-6.7-7.1c-0.3-3.5,2.2-6.5,5.7-6.8C477.4,349.6,477.7,349.6,478,349.6 M475,355.2
			h5.5c0-1.7-0.7-3-2.4-3C476.4,352.3,475.1,353.6,475,355.2"/>
	</g>
</g>
<g>
	<g>
		<path class="st1" d="M486,349.8h3.4l0.3,2.1c0.7-1.5,2.2-2.4,3.9-2.4c0.5,0,1.1,0.1,1.6,0.3l-0.5,3.4c-0.6-0.2-1.2-0.3-1.7-0.3
			c-1.3,0-2.3,0.8-3.1,2.4v8.1h-3.6v-13.6H486z"/>
	</g>
</g>
<g>
	<g>
		<path class="st1" d="M496.6,344.6h3.6v3.2h-3.6V344.6z M496.6,350.1h3.6v13.3h-3.6V350.1z"/>
	</g>
</g>
<g>
	<g>
		<path class="st1" d="M508.7,349.6c3.6-0.2,6.6,2.6,6.7,6.2c0,0.2,0,0.5,0,0.7c0,4.4-2.7,7.1-6.7,7.1c-4,0-6.8-2.7-6.8-7.1
			c-0.1-3.7,2.7-6.7,6.4-6.8C508.4,349.6,508.5,349.6,508.7,349.6 M508.7,360.9c1.9,0,3-1.7,3-4.4c0-2.4-1.2-4.2-3-4.2
			c-1.7,0-3.1,1.6-3.1,4.2C505.6,359.2,506.7,360.9,508.7,360.9"/>
	</g>
</g>
<g>
	<g>
		<path class="st1" d="M516.9,349.8h3.4l0.3,2.1c0.7-1.5,2.2-2.4,3.9-2.4c0.5,0,1.1,0.1,1.6,0.3l-0.5,3.4c-0.6-0.2-1.2-0.3-1.7-0.3
			c-1.3,0-2.3,0.8-3.1,2.4v8.1H517v-13.6H516.9z"/>
	</g>
</g>
<g>
	<g>
		<path class="st1" d="M528,359.6c1.3,0.7,2.7,1.1,4.2,1.2c1.2,0,2-0.4,2-1.3c0-2.3-7.2-0.8-7.2-5.8c0-2.7,2.5-4.2,5.4-4.2
			c1.7,0,3.4,0.4,5,1.2l-1.3,2.5c-1.1-0.6-2.4-0.9-3.6-0.9c-1.1,0-1.7,0.4-1.7,1.2c0,2.3,7.2,0.7,7.2,5.8c0,2.8-2.3,4.3-5.5,4.3
			c-2,0-3.9-0.5-5.6-1.5L528,359.6z"/>
	</g>
</g>
</svg>
